<?xml version="1.0" encoding="utf-8"?>
<!-- Generator: Adobe Illustrator 16.0.0, SVG Export Plug-In . SVG Version: 6.00 Build 0)  -->
<!DOCTYPE svg PUBLIC "-//W3C//DTD SVG 1.1//EN" "http://www.w3.org/Graphics/SVG/1.1/DTD/svg11.dtd">
<svg version="1.1" id="Capa_1" xmlns="http://www.w3.org/2000/svg" xmlns:xlink="http://www.w3.org/1999/xlink" x="0px" y="0px"
	 width="16px" height="28px" viewBox="192.5 12.5 16 28" enable-background="new 192.5 12.5 16 28" xml:space="preserve">
<path fill="#010002" d="M197.976,34.128c-0.024-1.837,0.151-3.24,0.525-4.208c0.374-0.967,1.176-2.115,2.407-3.445
	c0.495-0.568,0.978-1.125,1.447-1.668c0.664-0.797,1.17-1.565,1.521-2.304c0.351-0.749,0.524-1.632,0.524-2.648
	c0-1.161-0.275-2.212-0.825-3.156c-0.599-0.931-1.59-1.415-2.973-1.45c-1.909,0.06-3.162,0.707-3.76,1.94
	c-0.319,0.567-0.533,1.208-0.643,1.921c-0.147,0.749-0.219,1.517-0.219,2.303h-3.111c-0.097-2.339,0.431-4.358,1.582-6.058
	c1.125-1.737,3.024-2.628,5.697-2.677c2.288,0.024,4.104,0.644,5.445,1.862c1.354,1.229,2.043,2.928,2.066,5.096
	c0,1.21-0.146,2.236-0.435,3.084c-0.327,0.895-0.774,1.687-1.343,2.376c-0.521,0.688-1.132,1.396-1.833,2.121
	c-0.688,0.738-1.392,1.566-2.104,2.485c-0.254,0.399-0.455,0.823-0.6,1.271c-0.169,1.016-0.229,2.066-0.181,3.155H197.976z
	 M197.976,40.486v-3.691h3.259v3.691H197.976z"/>
</svg>
