<svg xmlns="http://www.w3.org/2000/svg" width="16" height="28" viewBox="192.5 12.5 16 28"><path fill="#010002" d="M197.976 34.128c-.024-1.837.151-3.24.525-4.208.374-.967 1.176-2.115 2.407-3.445.495-.568.978-1.125 1.447-1.668.664-.797 1.17-1.565 1.521-2.304.351-.749.524-1.632.524-2.648 0-1.161-.275-2.212-.825-3.156-.599-.931-1.59-1.415-2.973-1.45-1.909.06-3.162.707-3.76 1.94a5.636 5.636 0 0 0-.643 1.921 11.933 11.933 0 0 0-.219 2.303h-3.111c-.097-2.339.431-4.358 1.582-6.058 1.125-1.737 3.024-2.628 5.697-2.677 2.288.024 4.104.644 5.445 1.862 1.354 1.229 2.043 2.928 2.066 5.096 0 1.21-.146 2.236-.435 3.084a8.014 8.014 0 0 1-1.343 2.376 23.375 23.375 0 0 1-1.833 2.121 35.8 35.8 0 0 0-2.104 2.485 5.533 5.533 0 0 0-.6 1.271 15.113 15.113 0 0 0-.181 3.155h-3.187zm0 6.358v-3.691h3.259v3.691h-3.259z"/></svg>